<?xml version="1.0" encoding="UTF-8"?>
<svg xmlns="http://www.w3.org/2000/svg" xmlns:xlink="http://www.w3.org/1999/xlink" width="276pt" height="13pt" viewBox="0 0 276 13" version="1.1">
<defs>
<clipPath id="clip1">
  <path d="M 0.253906 3 L 6 3 L 6 9 L 0.253906 9 Z M 0.253906 3 "/>
</clipPath>
</defs>
<g id="surface1">
<g clip-path="url(#clip1)" clip-rule="nonzero">
<path style=" stroke:none;fill-rule:nonzero;fill:rgb(0%,0%,0%);fill-opacity:1;" d="M 5.417969 6.015625 C 5.417969 4.523438 4.300781 3.351562 2.96875 3.351562 C 1.636719 3.351562 0.542969 4.523438 0.542969 6.015625 C 0.542969 7.53125 1.664062 8.675781 2.96875 8.675781 C 4.300781 8.675781 5.417969 7.53125 5.417969 6.015625 Z M 2.96875 7.929688 C 2.089844 7.929688 1.34375 7.050781 1.34375 5.933594 C 1.34375 4.84375 2.117188 4.070312 2.96875 4.070312 C 3.820312 4.070312 4.59375 4.84375 4.59375 5.933594 C 4.59375 7.050781 3.847656 7.929688 2.96875 7.929688 "/>
</g>
<path style=" stroke:none;fill-rule:nonzero;fill:rgb(0%,0%,0%);fill-opacity:1;" d="M 8.132812 5.453125 C 8.132812 4.734375 8.824219 4.125 9.570312 4.125 C 10.449219 4.125 11.144531 4.976562 11.144531 6.015625 C 11.144531 7.160156 10.316406 7.929688 9.492188 7.929688 C 8.558594 7.929688 8.132812 6.894531 8.132812 6.332031 Z M 8.132812 8.0625 C 8.613281 8.570312 9.117188 8.675781 9.519531 8.675781 C 10.824219 8.675781 11.96875 7.53125 11.96875 6.015625 C 11.96875 4.550781 10.902344 3.378906 9.652344 3.378906 C 9.066406 3.378906 8.53125 3.589844 8.132812 3.964844 C 8.132812 3.617188 8.105469 3.457031 7.65625 3.457031 L 6.777344 3.457031 C 6.589844 3.457031 6.296875 3.457031 6.296875 3.832031 C 6.296875 4.175781 6.617188 4.175781 6.777344 4.175781 L 7.308594 4.175781 L 7.308594 10.515625 L 6.777344 10.515625 C 6.589844 10.515625 6.296875 10.515625 6.296875 10.886719 C 6.296875 11.234375 6.617188 11.234375 6.777344 11.234375 L 8.667969 11.234375 C 8.824219 11.234375 9.144531 11.234375 9.144531 10.886719 C 9.144531 10.515625 8.851562 10.515625 8.667969 10.515625 L 8.132812 10.515625 L 8.132812 8.0625 "/>
<path style="fill:none;stroke-width:0.0700639;stroke-linecap:butt;stroke-linejoin:miter;stroke:rgb(0%,0%,0%);stroke-opacity:1;stroke-miterlimit:10;" d="M 1.894773 0.574358 L 2.445472 0.574358 " transform="matrix(6.81663,0,0,-6.81663,0.252,12.298)"/>
<path style=" stroke:none;fill-rule:nonzero;fill:rgb(0%,0%,0%);fill-opacity:1;" d="M 20.648438 1.671875 C 20.648438 1.488281 20.648438 1.195312 20.300781 1.195312 C 20.0625 1.195312 20.007812 1.328125 19.957031 1.460938 C 19.503906 2.472656 18.863281 2.605469 18.652344 2.632812 C 18.464844 2.660156 18.199219 2.683594 18.199219 3.003906 C 18.199219 3.296875 18.410156 3.378906 18.597656 3.378906 C 18.8125 3.378906 19.316406 3.296875 19.824219 2.84375 L 19.824219 7.878906 L 18.757812 7.878906 C 18.570312 7.878906 18.277344 7.878906 18.277344 8.25 C 18.277344 8.597656 18.570312 8.597656 18.757812 8.597656 L 21.742188 8.597656 C 21.925781 8.597656 22.21875 8.597656 22.21875 8.25 C 22.21875 7.878906 21.925781 7.878906 21.742188 7.878906 L 20.648438 7.878906 L 20.648438 1.671875 "/>
<path style=" stroke:none;fill-rule:nonzero;fill:rgb(0%,0%,0%);fill-opacity:1;" d="M 27.011719 4.203125 C 27.011719 3.777344 26.667969 3.457031 26.292969 3.457031 C 25.839844 3.457031 25.546875 3.832031 25.546875 4.203125 C 25.546875 4.628906 25.894531 4.949219 26.265625 4.949219 C 26.71875 4.949219 27.011719 4.574219 27.011719 4.203125 Z M 27.011719 7.851562 C 27.011719 7.425781 26.667969 7.105469 26.292969 7.105469 C 25.839844 7.105469 25.546875 7.476562 25.546875 7.851562 C 25.546875 8.277344 25.894531 8.597656 26.265625 8.597656 C 26.71875 8.597656 27.011719 8.222656 27.011719 7.851562 "/>
<path style=" stroke:none;fill-rule:nonzero;fill:rgb(0%,0%,0%);fill-opacity:1;" d="M 33.324219 7.851562 C 33.324219 7.425781 32.976562 7.105469 32.578125 7.105469 C 32.125 7.105469 31.832031 7.476562 31.832031 7.851562 C 31.832031 8.277344 32.203125 8.597656 32.578125 8.597656 C 33.03125 8.597656 33.324219 8.222656 33.324219 7.851562 "/>
<path style=" stroke:none;fill-rule:nonzero;fill:rgb(0%,0%,0%);fill-opacity:1;" d="M 39.632812 7.851562 C 39.632812 7.425781 39.261719 7.105469 38.886719 7.105469 C 38.4375 7.105469 38.144531 7.476562 38.144531 7.851562 C 38.144531 8.277344 38.488281 8.597656 38.886719 8.597656 C 39.339844 8.597656 39.632812 8.222656 39.632812 7.851562 "/>
<path style=" stroke:none;fill-rule:nonzero;fill:rgb(0%,0%,0%);fill-opacity:1;" d="M 45.917969 7.851562 C 45.917969 7.425781 45.570312 7.105469 45.199219 7.105469 C 44.746094 7.105469 44.425781 7.476562 44.425781 7.851562 C 44.425781 8.277344 44.800781 8.597656 45.171875 8.597656 C 45.625 8.597656 45.917969 8.222656 45.917969 7.851562 "/>
<path style=" stroke:none;fill-rule:nonzero;fill:rgb(0%,0%,0%);fill-opacity:1;" d="M 52.230469 4.203125 C 52.230469 3.777344 51.855469 3.457031 51.484375 3.457031 C 51.03125 3.457031 50.738281 3.832031 50.738281 4.203125 C 50.738281 4.628906 51.082031 4.949219 51.484375 4.949219 C 51.9375 4.949219 52.230469 4.574219 52.230469 4.203125 Z M 52.230469 7.851562 C 52.230469 7.425781 51.855469 7.105469 51.484375 7.105469 C 51.03125 7.105469 50.738281 7.476562 50.738281 7.851562 C 50.738281 8.277344 51.082031 8.597656 51.484375 8.597656 C 51.9375 8.597656 52.230469 8.222656 52.230469 7.851562 "/>
<path style=" stroke:none;fill-rule:nonzero;fill:rgb(0%,0%,0%);fill-opacity:1;" d="M 60.109375 6.015625 C 60.109375 4.523438 59.019531 3.351562 57.6875 3.351562 C 56.328125 3.351562 55.238281 4.523438 55.238281 6.015625 C 55.238281 7.53125 56.355469 8.675781 57.6875 8.675781 C 58.992188 8.675781 60.109375 7.53125 60.109375 6.015625 Z M 57.6875 7.929688 C 56.78125 7.929688 56.0625 7.050781 56.0625 5.933594 C 56.0625 4.84375 56.835938 4.070312 57.6875 4.070312 C 58.539062 4.070312 59.285156 4.84375 59.285156 5.933594 C 59.285156 7.050781 58.566406 7.929688 57.6875 7.929688 "/>
<path style=" stroke:none;fill-rule:nonzero;fill:rgb(0%,0%,0%);fill-opacity:1;" d="M 62.828125 5.453125 C 62.828125 4.734375 63.519531 4.125 64.265625 4.125 C 65.144531 4.125 65.835938 4.976562 65.835938 6.015625 C 65.835938 7.160156 65.011719 7.929688 64.183594 7.929688 C 63.253906 7.929688 62.828125 6.894531 62.828125 6.332031 Z M 62.828125 8.0625 C 63.332031 8.570312 63.839844 8.675781 64.210938 8.675781 C 65.515625 8.675781 66.660156 7.53125 66.660156 6.015625 C 66.660156 4.550781 65.597656 3.378906 64.34375 3.378906 C 63.785156 3.378906 63.226562 3.589844 62.828125 3.964844 C 62.828125 3.617188 62.800781 3.457031 62.347656 3.457031 L 61.496094 3.457031 C 61.28125 3.457031 60.988281 3.457031 60.988281 3.832031 C 60.988281 4.175781 61.308594 4.175781 61.46875 4.175781 L 62 4.175781 L 62 10.515625 L 61.496094 10.515625 C 61.28125 10.515625 60.988281 10.515625 60.988281 10.886719 C 60.988281 11.234375 61.308594 11.234375 61.46875 11.234375 L 63.359375 11.234375 C 63.546875 11.234375 63.839844 11.234375 63.839844 10.886719 C 63.839844 10.515625 63.546875 10.515625 63.359375 10.515625 L 62.828125 10.515625 L 62.828125 8.0625 "/>
<path style="fill:none;stroke-width:0.0700639;stroke-linecap:butt;stroke-linejoin:miter;stroke:rgb(0%,0%,0%);stroke-opacity:1;stroke-miterlimit:10;" d="M 9.922017 0.574358 L 10.472715 0.574358 " transform="matrix(6.81663,0,0,-6.81663,0.252,12.298)"/>
<path style=" stroke:none;fill-rule:nonzero;fill:rgb(0%,0%,0%);fill-opacity:1;" d="M 73.636719 4.015625 C 73.636719 3.644531 73.636719 3.457031 73.15625 3.457031 L 72.277344 3.457031 C 72.09375 3.457031 71.800781 3.457031 71.800781 3.832031 C 71.800781 4.175781 72.09375 4.175781 72.277344 4.175781 L 72.8125 4.175781 L 72.8125 7.878906 L 72.277344 7.878906 C 72.09375 7.878906 71.800781 7.878906 71.800781 8.25 C 71.800781 8.597656 72.09375 8.597656 72.277344 8.597656 L 74.171875 8.597656 C 74.328125 8.597656 74.648438 8.597656 74.648438 8.25 C 74.648438 7.878906 74.355469 7.878906 74.144531 7.878906 L 73.636719 7.878906 L 73.636719 5.746094 C 73.636719 4.574219 74.515625 4.125 75.128906 4.125 C 75.742188 4.125 75.925781 4.441406 75.925781 5.160156 L 75.925781 7.878906 L 75.449219 7.878906 C 75.261719 7.878906 74.96875 7.878906 74.96875 8.25 C 74.96875 8.597656 75.289062 8.597656 75.449219 8.597656 L 77.285156 8.597656 C 77.445312 8.597656 77.765625 8.597656 77.765625 8.25 C 77.765625 7.878906 77.445312 7.878906 77.257812 7.878906 L 76.753906 7.878906 L 76.753906 5.109375 C 76.753906 3.910156 76.140625 3.378906 75.183594 3.378906 C 74.382812 3.378906 73.851562 3.804688 73.636719 4.015625 "/>
<path style=" stroke:none;fill-rule:nonzero;fill:rgb(0%,0%,0%);fill-opacity:1;" d="M 87.804688 0.875 C 87.804688 0.742188 87.804688 0.316406 87.378906 0.316406 C 86.953125 0.316406 86.953125 0.742188 86.953125 0.875 L 86.953125 9.023438 C 86.953125 9.183594 86.953125 9.582031 87.378906 9.582031 C 87.804688 9.582031 87.804688 9.183594 87.804688 9.023438 L 87.804688 0.875 "/>
<path style=" stroke:none;fill-rule:nonzero;fill:rgb(0%,0%,0%);fill-opacity:1;" d="M 100.691406 11.445312 C 100.691406 11.417969 100.691406 11.394531 100.503906 11.207031 C 99.011719 9.6875 98.613281 7.453125 98.613281 5.613281 C 98.613281 3.539062 99.066406 1.460938 100.53125 -0.03125 C 100.691406 -0.164062 100.691406 -0.191406 100.691406 -0.21875 C 100.691406 -0.296875 100.636719 -0.351562 100.585938 -0.351562 C 100.449219 -0.351562 99.386719 0.476562 98.695312 1.992188 C 98.082031 3.296875 97.921875 4.628906 97.921875 5.613281 C 97.921875 6.546875 98.054688 7.984375 98.71875 9.34375 C 99.4375 10.808594 100.449219 11.578125 100.585938 11.578125 C 100.636719 11.578125 100.691406 11.550781 100.691406 11.445312 "/>
<path style=" stroke:none;fill-rule:nonzero;fill:rgb(0%,0%,0%);fill-opacity:1;" d="M 104.84375 1.140625 C 104.84375 0.902344 104.65625 0.714844 104.390625 0.714844 C 104.074219 0.714844 103.753906 1.035156 103.753906 1.355469 C 103.753906 1.566406 103.914062 1.78125 104.207031 1.78125 C 104.472656 1.78125 104.84375 1.515625 104.84375 1.140625 Z M 103.9375 5.640625 C 104.074219 5.296875 104.074219 5.269531 104.207031 4.949219 C 104.285156 4.710938 104.339844 4.523438 104.339844 4.308594 C 104.339844 3.777344 103.964844 3.324219 103.378906 3.324219 C 102.261719 3.324219 101.808594 5.054688 101.808594 5.160156 C 101.808594 5.296875 101.914062 5.296875 101.941406 5.296875 C 102.046875 5.296875 102.074219 5.269531 102.128906 5.082031 C 102.449219 3.9375 102.925781 3.589844 103.328125 3.589844 C 103.433594 3.589844 103.621094 3.589844 103.621094 3.964844 C 103.621094 4.230469 103.539062 4.46875 103.511719 4.601562 C 103.40625 4.894531 102.875 6.28125 102.6875 6.785156 C 102.554688 7.105469 102.394531 7.503906 102.394531 7.746094 C 102.394531 8.304688 102.820312 8.730469 103.378906 8.730469 C 104.5 8.730469 104.953125 7 104.953125 6.894531 C 104.953125 6.785156 104.84375 6.785156 104.792969 6.785156 C 104.683594 6.785156 104.683594 6.8125 104.632812 7 C 104.417969 7.746094 104.019531 8.464844 103.40625 8.464844 C 103.195312 8.464844 103.113281 8.355469 103.113281 8.0625 C 103.113281 7.769531 103.195312 7.613281 103.460938 6.894531 L 103.9375 5.640625 "/>
<path style=" stroke:none;fill-rule:nonzero;fill:rgb(0%,0%,0%);fill-opacity:1;" d="M 108.359375 5.054688 C 108.359375 4.816406 108.359375 4.816406 108.121094 4.816406 C 107.585938 5.347656 106.816406 5.347656 106.46875 5.347656 L 106.46875 5.667969 C 106.683594 5.667969 107.214844 5.667969 107.695312 5.429688 L 107.695312 9.714844 C 107.695312 9.980469 107.695312 10.089844 106.839844 10.089844 L 106.523438 10.089844 L 106.523438 10.40625 C 106.683594 10.378906 107.71875 10.355469 108.011719 10.355469 C 108.28125 10.355469 109.34375 10.378906 109.53125 10.40625 L 109.53125 10.089844 L 109.210938 10.089844 C 108.359375 10.089844 108.359375 9.980469 108.359375 9.714844 L 108.359375 5.054688 "/>
<path style=" stroke:none;fill-rule:nonzero;fill:rgb(0%,0%,0%);fill-opacity:1;" d="M 114.777344 5.054688 C 114.777344 4.816406 114.75 4.816406 114.511719 4.816406 C 113.976562 5.347656 113.207031 5.347656 112.859375 5.347656 L 112.859375 5.667969 C 113.074219 5.667969 113.632812 5.667969 114.085938 5.429688 L 114.085938 9.714844 C 114.085938 9.980469 114.085938 10.089844 113.257812 10.089844 L 112.941406 10.089844 L 112.941406 10.40625 C 113.074219 10.378906 114.109375 10.355469 114.429688 10.355469 C 114.671875 10.355469 115.734375 10.378906 115.921875 10.40625 L 115.921875 10.089844 L 115.601562 10.089844 C 114.777344 10.089844 114.777344 9.980469 114.777344 9.714844 L 114.777344 5.054688 "/>
<path style=" stroke:none;fill-rule:nonzero;fill:rgb(0%,0%,0%);fill-opacity:1;" d="M 119.675781 8.597656 C 119.675781 7.796875 119.382812 7.34375 118.90625 7.34375 C 118.503906 7.34375 118.265625 7.636719 118.265625 7.957031 C 118.265625 8.277344 118.503906 8.597656 118.90625 8.597656 C 119.0625 8.597656 119.195312 8.542969 119.332031 8.4375 C 119.355469 8.410156 119.382812 8.410156 119.382812 8.410156 C 119.410156 8.410156 119.410156 8.410156 119.410156 8.597656 C 119.410156 9.476562 118.984375 10.195312 118.609375 10.566406 C 118.476562 10.699219 118.476562 10.726562 118.476562 10.753906 C 118.476562 10.859375 118.53125 10.886719 118.585938 10.886719 C 118.71875 10.886719 119.675781 9.980469 119.675781 8.597656 "/>
<path style=" stroke:none;fill-rule:nonzero;fill:rgb(0%,0%,0%);fill-opacity:1;" d="M 124.949219 7.957031 C 124.949219 7.613281 124.65625 7.34375 124.308594 7.34375 C 123.964844 7.34375 123.671875 7.613281 123.671875 7.957031 C 123.671875 8.304688 123.964844 8.597656 124.308594 8.597656 C 124.65625 8.597656 124.949219 8.304688 124.949219 7.957031 "/>
<path style=" stroke:none;fill-rule:nonzero;fill:rgb(0%,0%,0%);fill-opacity:1;" d="M 130.246094 7.957031 C 130.246094 7.613281 129.953125 7.34375 129.609375 7.34375 C 129.261719 7.34375 128.96875 7.613281 128.96875 7.957031 C 128.96875 8.304688 129.261719 8.597656 129.609375 8.597656 C 129.953125 8.597656 130.246094 8.304688 130.246094 7.957031 "/>
<path style=" stroke:none;fill-rule:nonzero;fill:rgb(0%,0%,0%);fill-opacity:1;" d="M 135.546875 7.957031 C 135.546875 7.613281 135.253906 7.34375 134.90625 7.34375 C 134.5625 7.34375 134.269531 7.613281 134.269531 7.957031 C 134.269531 8.304688 134.5625 8.597656 134.90625 8.597656 C 135.253906 8.597656 135.546875 8.304688 135.546875 7.957031 "/>
<path style=" stroke:none;fill-rule:nonzero;fill:rgb(0%,0%,0%);fill-opacity:1;" d="M 140.976562 8.597656 C 140.976562 7.796875 140.683594 7.34375 140.207031 7.34375 C 139.808594 7.34375 139.566406 7.636719 139.566406 7.957031 C 139.566406 8.277344 139.808594 8.597656 140.207031 8.597656 C 140.339844 8.597656 140.5 8.542969 140.632812 8.4375 C 140.660156 8.410156 140.683594 8.410156 140.683594 8.410156 C 140.683594 8.410156 140.710938 8.410156 140.710938 8.597656 C 140.710938 9.476562 140.285156 10.195312 139.886719 10.566406 C 139.78125 10.699219 139.78125 10.726562 139.78125 10.753906 C 139.78125 10.859375 139.832031 10.886719 139.886719 10.886719 C 140.019531 10.886719 140.976562 9.980469 140.976562 8.597656 "/>
<path style=" stroke:none;fill-rule:nonzero;fill:rgb(0%,0%,0%);fill-opacity:1;" d="M 147.234375 1.140625 C 147.234375 0.902344 147.074219 0.714844 146.78125 0.714844 C 146.464844 0.714844 146.144531 1.035156 146.144531 1.355469 C 146.144531 1.566406 146.332031 1.78125 146.597656 1.78125 C 146.890625 1.78125 147.234375 1.515625 147.234375 1.140625 Z M 146.332031 5.640625 C 146.464844 5.296875 146.464844 5.269531 146.597656 4.949219 C 146.703125 4.710938 146.757812 4.523438 146.757812 4.308594 C 146.757812 3.777344 146.355469 3.324219 145.769531 3.324219 C 144.652344 3.324219 144.199219 5.054688 144.199219 5.160156 C 144.199219 5.296875 144.304688 5.296875 144.332031 5.296875 C 144.464844 5.296875 144.464844 5.269531 144.519531 5.082031 C 144.867188 3.9375 145.320312 3.589844 145.746094 3.589844 C 145.824219 3.589844 146.039062 3.589844 146.039062 3.964844 C 146.039062 4.230469 145.957031 4.46875 145.90625 4.601562 C 145.796875 4.894531 145.265625 6.28125 145.078125 6.785156 C 144.972656 7.105469 144.8125 7.503906 144.8125 7.746094 C 144.8125 8.304688 145.210938 8.730469 145.769531 8.730469 C 146.914062 8.730469 147.34375 7 147.34375 6.894531 C 147.34375 6.785156 147.234375 6.785156 147.210938 6.785156 C 147.074219 6.785156 147.074219 6.8125 147.023438 7 C 146.808594 7.746094 146.410156 8.464844 145.796875 8.464844 C 145.609375 8.464844 145.53125 8.355469 145.53125 8.0625 C 145.53125 7.769531 145.585938 7.613281 145.878906 6.894531 L 146.332031 5.640625 "/>
<path style=" stroke:none;fill-rule:nonzero;fill:rgb(0%,0%,0%);fill-opacity:1;" d="M 150.777344 5.054688 C 150.777344 4.816406 150.75 4.816406 150.511719 4.816406 C 149.976562 5.347656 149.207031 5.347656 148.859375 5.347656 L 148.859375 5.667969 C 149.074219 5.667969 149.632812 5.667969 150.085938 5.429688 L 150.085938 9.714844 C 150.085938 9.980469 150.085938 10.089844 149.234375 10.089844 L 148.941406 10.089844 L 148.941406 10.40625 C 149.074219 10.378906 150.113281 10.355469 150.429688 10.355469 C 150.671875 10.355469 151.734375 10.378906 151.921875 10.40625 L 151.921875 10.089844 L 151.601562 10.089844 C 150.777344 10.089844 150.777344 9.980469 150.777344 9.714844 L 150.777344 5.054688 "/>
<path style=" stroke:none;fill-rule:nonzero;fill:rgb(0%,0%,0%);fill-opacity:1;" d="M 155.382812 9.875 C 155.355469 9.980469 155.304688 10.195312 155.304688 10.222656 C 155.304688 10.40625 155.4375 10.488281 155.570312 10.488281 C 155.730469 10.488281 155.863281 10.378906 155.914062 10.300781 C 155.941406 10.222656 156.023438 9.953125 156.050781 9.769531 C 156.101562 9.609375 156.183594 9.234375 156.234375 9.023438 C 156.289062 8.835938 156.34375 8.648438 156.394531 8.464844 C 156.476562 8.117188 156.503906 8.039062 156.742188 7.691406 C 156.980469 7.371094 157.378906 6.917969 157.992188 6.917969 C 158.5 6.917969 158.5 7.34375 158.5 7.503906 C 158.5 8.011719 158.125 8.941406 157.992188 9.316406 C 157.914062 9.527344 157.886719 9.609375 157.886719 9.769531 C 157.886719 10.195312 158.234375 10.488281 158.660156 10.488281 C 159.511719 10.488281 159.882812 9.316406 159.882812 9.210938 C 159.882812 9.074219 159.777344 9.074219 159.75 9.074219 C 159.617188 9.074219 159.617188 9.128906 159.589844 9.234375 C 159.40625 9.902344 159.03125 10.246094 158.683594 10.246094 C 158.527344 10.246094 158.5 10.140625 158.5 9.953125 C 158.5 9.769531 158.527344 9.660156 158.683594 9.261719 C 158.792969 9.023438 159.136719 8.117188 159.136719 7.636719 C 159.136719 6.839844 158.472656 6.679688 158.019531 6.679688 C 157.328125 6.679688 156.875 7.132812 156.609375 7.453125 C 156.554688 6.867188 156.050781 6.679688 155.703125 6.679688 C 155.355469 6.679688 155.171875 6.945312 155.039062 7.132812 C 154.878906 7.453125 154.746094 7.929688 154.746094 7.984375 C 154.746094 8.089844 154.878906 8.089844 154.878906 8.089844 C 155.011719 8.089844 155.011719 8.0625 155.0625 7.824219 C 155.199219 7.34375 155.355469 6.917969 155.675781 6.917969 C 155.914062 6.917969 155.96875 7.105469 155.96875 7.34375 C 155.96875 7.503906 155.890625 7.796875 155.835938 8.039062 C 155.78125 8.25 155.675781 8.597656 155.648438 8.78125 L 155.382812 9.875 "/>
<path style=" stroke:none;fill-rule:nonzero;fill:rgb(0%,0%,0%);fill-opacity:1;" d="M 164.304688 5.613281 C 164.304688 4.683594 164.171875 3.246094 163.503906 1.886719 C 162.785156 0.421875 161.773438 -0.351562 161.640625 -0.351562 C 161.589844 -0.351562 161.535156 -0.296875 161.535156 -0.21875 C 161.535156 -0.191406 161.535156 -0.164062 161.746094 0.0507812 C 162.917969 1.222656 163.609375 3.136719 163.609375 5.613281 C 163.609375 7.664062 163.160156 9.742188 161.695312 11.257812 C 161.535156 11.394531 161.535156 11.417969 161.535156 11.445312 C 161.535156 11.527344 161.589844 11.578125 161.640625 11.578125 C 161.773438 11.578125 162.839844 10.753906 163.558594 9.261719 C 164.144531 7.929688 164.304688 6.625 164.304688 5.613281 "/>
<path style=" stroke:none;fill-rule:nonzero;fill:rgb(0%,0%,0%);fill-opacity:1;" d="M 168.910156 8.570312 C 168.722656 9.289062 168.164062 9.503906 168.03125 9.527344 C 167.925781 9.582031 167.683594 9.636719 167.683594 9.875 C 167.683594 10.0625 167.871094 10.246094 168.085938 10.246094 C 168.457031 10.246094 169.683594 9.609375 169.683594 8.304688 C 169.683594 7.585938 169.203125 7.105469 168.695312 7.105469 C 168.21875 7.105469 167.925781 7.476562 167.925781 7.851562 C 167.925781 8.304688 168.269531 8.597656 168.671875 8.597656 C 168.75 8.597656 168.832031 8.597656 168.910156 8.570312 "/>
<path style=" stroke:none;fill-rule:nonzero;fill:rgb(0%,0%,0%);fill-opacity:1;" d="M 181.984375 11.445312 C 181.984375 11.417969 181.984375 11.394531 181.796875 11.207031 C 180.308594 9.6875 179.933594 7.453125 179.933594 5.613281 C 179.933594 3.539062 180.386719 1.460938 181.851562 -0.03125 C 181.984375 -0.164062 181.984375 -0.191406 181.984375 -0.21875 C 181.984375 -0.296875 181.957031 -0.351562 181.878906 -0.351562 C 181.769531 -0.351562 180.679688 0.476562 179.988281 1.992188 C 179.375 3.296875 179.242188 4.628906 179.242188 5.613281 C 179.242188 6.546875 179.375 7.984375 180.015625 9.34375 C 180.734375 10.808594 181.769531 11.578125 181.878906 11.578125 C 181.957031 11.578125 181.984375 11.550781 181.984375 11.445312 "/>
<path style=" stroke:none;fill-rule:nonzero;fill:rgb(0%,0%,0%);fill-opacity:1;" d="M 186.136719 1.140625 C 186.136719 0.902344 185.980469 0.714844 185.683594 0.714844 C 185.367188 0.714844 185.046875 1.035156 185.046875 1.355469 C 185.046875 1.566406 185.207031 1.78125 185.5 1.78125 C 185.792969 1.78125 186.136719 1.515625 186.136719 1.140625 Z M 185.234375 5.640625 C 185.367188 5.296875 185.367188 5.269531 185.5 4.949219 C 185.578125 4.710938 185.660156 4.523438 185.660156 4.308594 C 185.660156 3.777344 185.257812 3.324219 184.675781 3.324219 C 183.554688 3.324219 183.101562 5.054688 183.101562 5.160156 C 183.101562 5.296875 183.210938 5.296875 183.234375 5.296875 C 183.371094 5.296875 183.371094 5.269531 183.421875 5.082031 C 183.742188 3.9375 184.222656 3.589844 184.648438 3.589844 C 184.726562 3.589844 184.941406 3.589844 184.941406 3.964844 C 184.941406 4.230469 184.859375 4.46875 184.808594 4.601562 C 184.699219 4.894531 184.167969 6.28125 183.980469 6.785156 C 183.847656 7.105469 183.714844 7.503906 183.714844 7.746094 C 183.714844 8.304688 184.113281 8.730469 184.675781 8.730469 C 185.792969 8.730469 186.246094 7 186.246094 6.894531 C 186.246094 6.785156 186.136719 6.785156 186.113281 6.785156 C 185.980469 6.785156 185.980469 6.8125 185.925781 7 C 185.710938 7.746094 185.3125 8.464844 184.699219 8.464844 C 184.515625 8.464844 184.433594 8.355469 184.433594 8.0625 C 184.433594 7.769531 184.488281 7.613281 184.753906 6.894531 L 185.234375 5.640625 "/>
<path style=" stroke:none;fill-rule:nonzero;fill:rgb(0%,0%,0%);fill-opacity:1;" d="M 191.089844 8.863281 L 190.796875 8.863281 C 190.796875 9.050781 190.691406 9.554688 190.585938 9.636719 C 190.53125 9.6875 189.867188 9.6875 189.761719 9.6875 L 188.214844 9.6875 C 189.09375 8.890625 189.386719 8.675781 189.894531 8.277344 C 190.503906 7.769531 191.089844 7.265625 191.089844 6.464844 C 191.089844 5.429688 190.210938 4.816406 189.121094 4.816406 C 188.082031 4.816406 187.390625 5.5625 187.390625 6.332031 C 187.390625 6.757812 187.734375 6.785156 187.816406 6.785156 C 188.027344 6.785156 188.269531 6.652344 188.269531 6.332031 C 188.269531 6.199219 188.214844 5.90625 187.789062 5.90625 C 188.027344 5.296875 188.613281 5.109375 189.015625 5.109375 C 189.839844 5.109375 190.292969 5.773438 190.292969 6.464844 C 190.292969 7.183594 189.761719 7.769531 189.492188 8.0625 L 187.46875 10.0625 C 187.390625 10.140625 187.390625 10.167969 187.390625 10.40625 L 190.851562 10.40625 L 191.089844 8.863281 "/>
<path style=" stroke:none;fill-rule:nonzero;fill:rgb(0%,0%,0%);fill-opacity:1;" d="M 196.070312 5.054688 C 196.070312 4.816406 196.042969 4.816406 195.804688 4.816406 C 195.273438 5.347656 194.527344 5.347656 194.179688 5.347656 L 194.179688 5.667969 C 194.367188 5.667969 194.925781 5.667969 195.378906 5.429688 L 195.378906 9.714844 C 195.378906 9.980469 195.378906 10.089844 194.550781 10.089844 L 194.234375 10.089844 L 194.234375 10.40625 C 194.367188 10.378906 195.40625 10.355469 195.722656 10.355469 C 195.988281 10.355469 197.054688 10.378906 197.214844 10.40625 L 197.214844 10.089844 L 196.894531 10.089844 C 196.070312 10.089844 196.070312 9.980469 196.070312 9.714844 L 196.070312 5.054688 "/>
<path style=" stroke:none;fill-rule:nonzero;fill:rgb(0%,0%,0%);fill-opacity:1;" d="M 201.074219 8.597656 C 201.074219 7.796875 200.785156 7.34375 200.304688 7.34375 C 199.90625 7.34375 199.664062 7.636719 199.664062 7.957031 C 199.664062 8.277344 199.90625 8.597656 200.304688 8.597656 C 200.464844 8.597656 200.597656 8.542969 200.730469 8.4375 C 200.757812 8.410156 200.785156 8.410156 200.785156 8.410156 C 200.808594 8.410156 200.808594 8.410156 200.808594 8.597656 C 200.808594 9.476562 200.382812 10.195312 200.011719 10.566406 C 199.878906 10.699219 199.878906 10.726562 199.878906 10.753906 C 199.878906 10.859375 199.929688 10.886719 199.984375 10.886719 C 200.117188 10.886719 201.074219 9.980469 201.074219 8.597656 "/>
<path style=" stroke:none;fill-rule:nonzero;fill:rgb(0%,0%,0%);fill-opacity:1;" d="M 206.242188 7.957031 C 206.242188 7.613281 205.949219 7.34375 205.601562 7.34375 C 205.257812 7.34375 204.964844 7.613281 204.964844 7.957031 C 204.964844 8.304688 205.257812 8.597656 205.601562 8.597656 C 205.949219 8.597656 206.242188 8.304688 206.242188 7.957031 "/>
<path style=" stroke:none;fill-rule:nonzero;fill:rgb(0%,0%,0%);fill-opacity:1;" d="M 211.539062 7.957031 C 211.539062 7.613281 211.246094 7.34375 210.902344 7.34375 C 210.554688 7.34375 210.289062 7.613281 210.289062 7.957031 C 210.289062 8.304688 210.554688 8.597656 210.902344 8.597656 C 211.246094 8.597656 211.539062 8.304688 211.539062 7.957031 "/>
<path style=" stroke:none;fill-rule:nonzero;fill:rgb(0%,0%,0%);fill-opacity:1;" d="M 216.839844 7.957031 C 216.839844 7.613281 216.546875 7.34375 216.199219 7.34375 C 215.855469 7.34375 215.589844 7.613281 215.589844 7.957031 C 215.589844 8.304688 215.855469 8.597656 216.199219 8.597656 C 216.546875 8.597656 216.839844 8.304688 216.839844 7.957031 "/>
<path style=" stroke:none;fill-rule:nonzero;fill:rgb(0%,0%,0%);fill-opacity:1;" d="M 222.273438 8.597656 C 222.273438 7.796875 221.980469 7.34375 221.5 7.34375 C 221.125 7.34375 220.886719 7.636719 220.886719 7.957031 C 220.886719 8.277344 221.125 8.597656 221.5 8.597656 C 221.660156 8.597656 221.820312 8.542969 221.925781 8.4375 C 221.953125 8.410156 221.980469 8.410156 221.980469 8.410156 C 222.003906 8.410156 222.003906 8.410156 222.003906 8.597656 C 222.003906 9.476562 221.605469 10.195312 221.207031 10.566406 C 221.074219 10.699219 221.074219 10.726562 221.074219 10.753906 C 221.074219 10.859375 221.125 10.886719 221.179688 10.886719 C 221.3125 10.886719 222.273438 9.980469 222.273438 8.597656 "/>
<path style=" stroke:none;fill-rule:nonzero;fill:rgb(0%,0%,0%);fill-opacity:1;" d="M 228.53125 1.140625 C 228.53125 0.902344 228.371094 0.714844 228.101562 0.714844 C 227.785156 0.714844 227.464844 1.035156 227.464844 1.355469 C 227.464844 1.566406 227.625 1.78125 227.917969 1.78125 C 228.183594 1.78125 228.53125 1.515625 228.53125 1.140625 Z M 227.625 5.640625 C 227.785156 5.296875 227.785156 5.269531 227.890625 4.949219 C 227.996094 4.710938 228.050781 4.523438 228.050781 4.308594 C 228.050781 3.777344 227.675781 3.324219 227.066406 3.324219 C 225.945312 3.324219 225.492188 5.054688 225.492188 5.160156 C 225.492188 5.296875 225.625 5.296875 225.652344 5.296875 C 225.761719 5.296875 225.761719 5.269531 225.839844 5.082031 C 226.160156 3.9375 226.636719 3.589844 227.039062 3.589844 C 227.117188 3.589844 227.332031 3.589844 227.332031 3.964844 C 227.332031 4.230469 227.25 4.46875 227.199219 4.601562 C 227.117188 4.894531 226.558594 6.28125 226.371094 6.785156 C 226.265625 7.105469 226.105469 7.503906 226.105469 7.746094 C 226.105469 8.304688 226.503906 8.730469 227.089844 8.730469 C 228.210938 8.730469 228.636719 7 228.636719 6.894531 C 228.636719 6.785156 228.53125 6.785156 228.503906 6.785156 C 228.371094 6.785156 228.371094 6.8125 228.316406 7 C 228.101562 7.746094 227.703125 8.464844 227.117188 8.464844 C 226.90625 8.464844 226.824219 8.355469 226.824219 8.0625 C 226.824219 7.769531 226.90625 7.613281 227.171875 6.894531 L 227.625 5.640625 "/>
<path style=" stroke:none;fill-rule:nonzero;fill:rgb(0%,0%,0%);fill-opacity:1;" d="M 233.507812 8.863281 L 233.214844 8.863281 C 233.1875 9.050781 233.109375 9.554688 233.003906 9.636719 C 232.921875 9.6875 232.285156 9.6875 232.148438 9.6875 L 230.605469 9.6875 C 231.484375 8.890625 231.777344 8.675781 232.285156 8.277344 C 232.921875 7.769531 233.507812 7.265625 233.507812 6.464844 C 233.507812 5.429688 232.601562 4.816406 231.539062 4.816406 C 230.5 4.816406 229.78125 5.5625 229.78125 6.332031 C 229.78125 6.757812 230.152344 6.785156 230.234375 6.785156 C 230.417969 6.785156 230.660156 6.652344 230.660156 6.332031 C 230.660156 6.199219 230.605469 5.90625 230.179688 5.90625 C 230.445312 5.296875 231.003906 5.109375 231.40625 5.109375 C 232.257812 5.109375 232.683594 5.773438 232.683594 6.464844 C 232.683594 7.183594 232.148438 7.769531 231.882812 8.0625 L 229.859375 10.0625 C 229.78125 10.140625 229.78125 10.167969 229.78125 10.40625 L 233.242188 10.40625 L 233.507812 8.863281 "/>
<path style=" stroke:none;fill-rule:nonzero;fill:rgb(0%,0%,0%);fill-opacity:1;" d="M 236.675781 9.875 C 236.652344 9.980469 236.597656 10.195312 236.597656 10.222656 C 236.597656 10.40625 236.757812 10.488281 236.890625 10.488281 C 237.023438 10.488281 237.15625 10.378906 237.210938 10.300781 C 237.234375 10.222656 237.316406 9.953125 237.371094 9.769531 C 237.394531 9.609375 237.503906 9.234375 237.554688 9.023438 C 237.582031 8.835938 237.636719 8.648438 237.6875 8.464844 C 237.769531 8.117188 237.796875 8.039062 238.035156 7.691406 C 238.273438 7.371094 238.675781 6.917969 239.285156 6.917969 C 239.792969 6.917969 239.792969 7.34375 239.792969 7.503906 C 239.792969 8.011719 239.445312 8.941406 239.285156 9.316406 C 239.207031 9.527344 239.179688 9.609375 239.179688 9.769531 C 239.179688 10.195312 239.554688 10.488281 239.980469 10.488281 C 240.804688 10.488281 241.175781 9.316406 241.175781 9.210938 C 241.175781 9.074219 241.070312 9.074219 241.042969 9.074219 C 240.9375 9.074219 240.910156 9.128906 240.882812 9.234375 C 240.699219 9.902344 240.324219 10.246094 240.003906 10.246094 C 239.820312 10.246094 239.792969 10.140625 239.792969 9.953125 C 239.792969 9.769531 239.820312 9.660156 239.980469 9.261719 C 240.085938 9.023438 240.433594 8.117188 240.433594 7.636719 C 240.433594 6.839844 239.765625 6.679688 239.339844 6.679688 C 238.648438 6.679688 238.167969 7.132812 237.902344 7.453125 C 237.847656 6.867188 237.371094 6.679688 237.023438 6.679688 C 236.652344 6.679688 236.464844 6.945312 236.359375 7.132812 C 236.171875 7.453125 236.039062 7.929688 236.039062 7.984375 C 236.039062 8.089844 236.171875 8.089844 236.199219 8.089844 C 236.304688 8.089844 236.304688 8.0625 236.382812 7.824219 C 236.492188 7.34375 236.652344 6.917969 236.996094 6.917969 C 237.210938 6.917969 237.261719 7.105469 237.261719 7.34375 C 237.261719 7.503906 237.183594 7.796875 237.128906 8.039062 C 237.078125 8.25 236.996094 8.597656 236.945312 8.78125 L 236.675781 9.875 "/>
<path style=" stroke:none;fill-rule:nonzero;fill:rgb(0%,0%,0%);fill-opacity:1;" d="M 245.703125 5.613281 C 245.703125 4.683594 245.570312 3.246094 244.90625 1.886719 C 244.1875 0.421875 243.175781 -0.351562 243.042969 -0.351562 C 242.988281 -0.351562 242.933594 -0.296875 242.933594 -0.21875 C 242.933594 -0.191406 242.933594 -0.164062 243.148438 0.0507812 C 244.320312 1.222656 245.011719 3.136719 245.011719 5.613281 C 245.011719 7.664062 244.558594 9.742188 243.09375 11.257812 C 242.933594 11.394531 242.933594 11.417969 242.933594 11.445312 C 242.933594 11.527344 242.988281 11.578125 243.042969 11.578125 C 243.175781 11.578125 244.238281 10.753906 244.957031 9.261719 C 245.542969 7.929688 245.703125 6.625 245.703125 5.613281 "/>
<path style=" stroke:none;fill-rule:nonzero;fill:rgb(0%,0%,0%);fill-opacity:1;" d="M 250.203125 8.570312 C 250.042969 9.289062 249.484375 9.503906 249.324219 9.527344 C 249.21875 9.582031 249.003906 9.636719 249.003906 9.875 C 249.003906 10.0625 249.164062 10.246094 249.378906 10.246094 C 249.75 10.246094 250.976562 9.609375 250.976562 8.304688 C 250.976562 7.585938 250.523438 7.105469 249.992188 7.105469 C 249.511719 7.105469 249.246094 7.476562 249.246094 7.851562 C 249.246094 8.304688 249.589844 8.597656 249.964844 8.597656 C 250.042969 8.597656 250.125 8.597656 250.203125 8.570312 "/>
<path style=" stroke:none;fill-rule:nonzero;fill:rgb(0%,0%,0%);fill-opacity:1;" d="M 263.332031 7.851562 C 263.332031 7.425781 262.957031 7.105469 262.585938 7.105469 C 262.132812 7.105469 261.839844 7.476562 261.839844 7.851562 C 261.839844 8.277344 262.1875 8.597656 262.585938 8.597656 C 263.039062 8.597656 263.332031 8.222656 263.332031 7.851562 "/>
<path style=" stroke:none;fill-rule:nonzero;fill:rgb(0%,0%,0%);fill-opacity:1;" d="M 269.535156 7.851562 C 269.535156 7.425781 269.164062 7.105469 268.789062 7.105469 C 268.335938 7.105469 268.042969 7.476562 268.042969 7.851562 C 268.042969 8.277344 268.390625 8.597656 268.761719 8.597656 C 269.214844 8.597656 269.535156 8.222656 269.535156 7.851562 "/>
<path style=" stroke:none;fill-rule:nonzero;fill:rgb(0%,0%,0%);fill-opacity:1;" d="M 275.820312 7.851562 C 275.820312 7.425781 275.472656 7.105469 275.074219 7.105469 C 274.648438 7.105469 274.328125 7.476562 274.328125 7.851562 C 274.328125 8.277344 274.699219 8.597656 275.074219 8.597656 C 275.527344 8.597656 275.820312 8.222656 275.820312 7.851562 "/>
</g>
</svg>
